<svg width="440" height="230" viewBox="0 0 440 230" fill="none" xmlns="http://www.w3.org/2000/svg">
<path d="M250.274 176.544L228.322 228.768H218.786L226.466 211.104L212.258 176.544H222.306L231.458 201.312L240.738 176.544H250.274Z" fill="#2F2F2E"/>
<path d="M199.439 182.048C200.591 180.171 202.084 178.699 203.919 177.632C205.796 176.565 207.929 176.032 210.319 176.032V185.44H207.951C205.135 185.44 203.001 186.101 201.551 187.424C200.143 188.747 199.439 191.051 199.439 194.336V212H190.479V176.544H199.439V182.048Z" fill="#2F2F2E"/>
<path d="M183.939 193.504C183.939 194.784 183.853 195.936 183.683 196.96H157.763C157.976 199.52 158.872 201.525 160.451 202.976C162.029 204.427 163.971 205.152 166.275 205.152C169.603 205.152 171.971 203.723 173.379 200.864H183.043C182.019 204.277 180.056 207.093 177.155 209.312C174.253 211.488 170.691 212.576 166.467 212.576C163.053 212.576 159.981 211.829 157.251 210.336C154.563 208.8 152.451 206.645 150.915 203.872C149.421 201.099 148.675 197.899 148.675 194.272C148.675 190.603 149.421 187.381 150.915 184.608C152.408 181.835 154.499 179.701 157.187 178.208C159.875 176.715 162.968 175.968 166.467 175.968C169.837 175.968 172.845 176.693 175.491 178.144C178.179 179.595 180.248 181.664 181.699 184.352C183.192 186.997 183.939 190.048 183.939 193.504ZM174.659 190.944C174.616 188.64 173.784 186.805 172.163 185.44C170.541 184.032 168.557 183.328 166.211 183.328C163.992 183.328 162.115 184.011 160.579 185.376C159.085 186.699 158.168 188.555 157.827 190.944H174.659Z" fill="#2F2F2E"/>
<path d="M110.175 194.272C110.175 190.603 110.921 187.403 112.415 184.672C113.908 181.899 115.977 179.765 118.623 178.272C121.268 176.736 124.297 175.968 127.711 175.968C132.105 175.968 135.732 177.077 138.591 179.296C141.492 181.472 143.433 184.544 144.415 188.512H134.751C134.239 186.976 133.364 185.781 132.127 184.928C130.932 184.032 129.439 183.584 127.647 183.584C125.087 183.584 123.06 184.523 121.567 186.4C120.073 188.235 119.327 190.859 119.327 194.272C119.327 197.643 120.073 200.267 121.567 202.144C123.06 203.979 125.087 204.896 127.647 204.896C131.273 204.896 133.641 203.275 134.751 200.032H144.415C143.433 203.872 141.492 206.923 138.591 209.184C135.689 211.445 132.063 212.576 127.711 212.576C124.297 212.576 121.268 211.829 118.623 210.336C115.977 208.8 113.908 206.667 112.415 203.936C110.921 201.163 110.175 197.941 110.175 194.272Z" fill="#2F2F2E"/>
<path d="M87.41 212.576C83.9967 212.576 80.9247 211.829 78.194 210.336C75.4634 208.8 73.3087 206.645 71.73 203.872C70.194 201.099 69.426 197.899 69.426 194.272C69.426 190.645 70.2154 187.445 71.794 184.672C73.4154 181.899 75.6127 179.765 78.386 178.272C81.1594 176.736 84.2527 175.968 87.666 175.968C91.0794 175.968 94.1727 176.736 96.946 178.272C99.7194 179.765 101.895 181.899 103.474 184.672C105.095 187.445 105.906 190.645 105.906 194.272C105.906 197.899 105.074 201.099 103.41 203.872C101.789 206.645 99.57 208.8 96.754 210.336C93.9807 211.829 90.866 212.576 87.41 212.576ZM87.41 204.768C89.0314 204.768 90.546 204.384 91.954 203.616C93.4047 202.805 94.5567 201.611 95.41 200.032C96.2634 198.453 96.69 196.533 96.69 194.272C96.69 190.901 95.794 188.32 94.002 186.528C92.2527 184.693 90.098 183.776 87.538 183.776C84.978 183.776 82.8234 184.693 81.074 186.528C79.3674 188.32 78.514 190.901 78.514 194.272C78.514 197.643 79.346 200.245 81.01 202.08C82.7167 203.872 84.85 204.768 87.41 204.768Z" fill="#2F2F2E"/>
<path d="M54.751 182.048C55.903 180.171 57.3964 178.699 59.231 177.632C61.1084 176.565 63.2417 176.032 65.631 176.032V185.44H63.263C60.447 185.44 58.3137 186.101 56.863 187.424C55.455 188.747 54.751 191.051 54.751 194.336V212H45.791V176.544H54.751V182.048Z" fill="#2F2F2E"/>
<path d="M16.3041 175.968C18.9494 175.968 21.2747 176.501 23.2801 177.568C25.2854 178.592 26.8641 179.936 28.0161 181.6V176.544H37.0401V212.256C37.0401 215.541 36.3787 218.464 35.0561 221.024C33.7334 223.627 31.7494 225.675 29.1041 227.168C26.4587 228.704 23.2587 229.472 19.5041 229.472C14.4694 229.472 10.3307 228.299 7.08806 225.952C3.88806 223.605 2.07473 220.405 1.64806 216.352H10.5441C11.0134 217.973 12.0161 219.253 13.5521 220.192C15.1307 221.173 17.0294 221.664 19.2481 221.664C21.8507 221.664 23.9627 220.875 25.5841 219.296C27.2054 217.76 28.0161 215.413 28.0161 212.256V206.752C26.8641 208.416 25.2641 209.803 23.2161 210.912C21.2107 212.021 18.9067 212.576 16.3041 212.576C13.3174 212.576 10.5867 211.808 8.11206 210.272C5.63739 208.736 3.67473 206.581 2.22406 203.808C0.816061 200.992 0.112061 197.771 0.112061 194.144C0.112061 190.56 0.816061 187.381 2.22406 184.608C3.67473 181.835 5.61606 179.701 8.04806 178.208C10.5227 176.715 13.2747 175.968 16.3041 175.968ZM28.0161 194.272C28.0161 192.096 27.5894 190.24 26.7361 188.704C25.8827 187.125 24.7307 185.931 23.2801 185.12C21.8294 184.267 20.2721 183.84 18.6081 183.84C16.9441 183.84 15.4081 184.245 14.0001 185.056C12.5921 185.867 11.4401 187.061 10.5441 188.64C9.69073 190.176 9.26406 192.011 9.26406 194.144C9.26406 196.277 9.69073 198.155 10.5441 199.776C11.4401 201.355 12.5921 202.571 14.0001 203.424C15.4507 204.277 16.9867 204.704 18.6081 204.704C20.2721 204.704 21.8294 204.299 23.2801 203.488C24.7307 202.635 25.8827 201.44 26.7361 199.904C27.5894 198.325 28.0161 196.448 28.0161 194.272Z" fill="#2F2F2E"/>
<path d="M411.322 94.032C414.01 94.032 416.399 94.6293 418.49 95.824C420.58 96.976 422.202 98.704 423.354 101.008C424.548 103.269 425.146 106 425.146 109.2V130H416.185V110.416C416.185 107.6 415.481 105.445 414.073 103.952C412.665 102.416 410.746 101.648 408.314 101.648C405.839 101.648 403.876 102.416 402.426 103.952C401.018 105.445 400.314 107.6 400.314 110.416V130H391.354V82.64H400.314V98.96C401.466 97.424 403.002 96.2293 404.922 95.376C406.842 94.48 408.975 94.032 411.322 94.032Z" fill="#106D42"/>
<path d="M370.047 130.576C367.145 130.576 364.543 130.064 362.239 129.04C359.935 127.973 358.1 126.544 356.735 124.752C355.412 122.96 354.687 120.976 354.559 118.8H363.583C363.753 120.165 364.415 121.296 365.567 122.192C366.761 123.088 368.233 123.536 369.983 123.536C371.689 123.536 373.012 123.195 373.951 122.512C374.932 121.829 375.423 120.955 375.423 119.888C375.423 118.736 374.825 117.883 373.631 117.328C372.479 116.731 370.623 116.091 368.063 115.408C365.417 114.768 363.241 114.107 361.535 113.424C359.871 112.741 358.42 111.696 357.183 110.288C355.988 108.88 355.391 106.981 355.391 104.592C355.391 102.629 355.945 100.837 357.055 99.216C358.207 97.5947 359.828 96.3147 361.919 95.376C364.052 94.4373 366.548 93.968 369.407 93.968C373.631 93.968 377.001 95.0347 379.519 97.168C382.036 99.2587 383.423 102.096 383.679 105.68H375.103C374.975 104.272 374.377 103.163 373.311 102.352C372.287 101.499 370.9 101.072 369.151 101.072C367.529 101.072 366.271 101.371 365.375 101.968C364.521 102.565 364.095 103.397 364.095 104.464C364.095 105.659 364.692 106.576 365.887 107.216C367.081 107.813 368.937 108.432 371.455 109.072C374.015 109.712 376.127 110.373 377.791 111.056C379.455 111.739 380.884 112.805 382.079 114.256C383.316 115.664 383.956 117.541 383.999 119.888C383.999 121.936 383.423 123.771 382.271 125.392C381.161 127.013 379.54 128.293 377.407 129.232C375.316 130.128 372.863 130.576 370.047 130.576Z" fill="#106D42"/>
<path d="M349.939 111.504C349.939 112.784 349.853 113.936 349.683 114.96H323.763C323.976 117.52 324.872 119.525 326.451 120.976C328.029 122.427 329.971 123.152 332.275 123.152C335.603 123.152 337.971 121.723 339.379 118.864H349.043C348.019 122.277 346.056 125.093 343.155 127.312C340.253 129.488 336.691 130.576 332.467 130.576C329.053 130.576 325.981 129.829 323.251 128.336C320.563 126.8 318.451 124.645 316.915 121.872C315.421 119.099 314.675 115.899 314.675 112.272C314.675 108.603 315.421 105.381 316.915 102.608C318.408 99.8347 320.499 97.7013 323.187 96.208C325.875 94.7147 328.968 93.968 332.467 93.968C335.837 93.968 338.845 94.6933 341.491 96.144C344.179 97.5947 346.248 99.664 347.699 102.352C349.192 104.997 349.939 108.048 349.939 111.504ZM340.659 108.944C340.616 106.64 339.784 104.805 338.163 103.44C336.541 102.032 334.557 101.328 332.211 101.328C329.992 101.328 328.115 102.011 326.579 103.376C325.085 104.699 324.168 106.555 323.827 108.944H340.659Z" fill="#106D42"/>
<path d="M300.064 100.048C301.216 98.1706 302.709 96.6987 304.543 95.632C306.421 94.5653 308.554 94.032 310.944 94.032V103.44H308.576C305.76 103.44 303.626 104.101 302.176 105.424C300.768 106.747 300.064 109.051 300.064 112.336V130H291.104V94.544H300.064V100.048Z" fill="#106D42"/>
<path d="M285.297 101.904H279.089V130H270.001V101.904H265.969V94.544H270.001V92.752C270.001 88.4 271.238 85.2 273.713 83.152C276.188 81.104 279.921 80.144 284.913 80.272V87.824C282.737 87.7813 281.222 88.144 280.369 88.912C279.516 89.68 279.089 91.0667 279.089 93.072V94.544H285.297V101.904Z" fill="#106D42"/>
<path d="M231.447 94.032C234.135 94.032 236.524 94.6293 238.615 95.824C240.705 96.976 242.327 98.704 243.479 101.008C244.673 103.269 245.271 106 245.271 109.2V130H236.311V110.416C236.311 107.6 235.607 105.445 234.199 103.952C232.791 102.416 230.871 101.648 228.439 101.648C225.964 101.648 224.001 102.416 222.551 103.952C221.143 105.445 220.439 107.6 220.439 110.416V130H211.479V82.64H220.439V98.96C221.591 97.424 223.127 96.2293 225.047 95.376C226.967 94.48 229.1 94.032 231.447 94.032Z" fill="#2F2F2E"/>
<path d="M197.098 101.904V119.056C197.098 120.251 197.375 121.125 197.93 121.68C198.527 122.192 199.509 122.448 200.874 122.448H205.034V130H199.402C191.85 130 188.074 126.331 188.074 118.992V101.904H183.85V94.544H188.074V85.776H197.098V94.544H205.034V101.904H197.098Z" fill="#2F2F2E"/>
<path d="M173.398 90.32C171.819 90.32 170.496 89.8293 169.43 88.848C168.406 87.824 167.894 86.5653 167.894 85.072C167.894 83.5787 168.406 82.3413 169.43 81.36C170.496 80.336 171.819 79.824 173.398 79.824C174.976 79.824 176.278 80.336 177.302 81.36C178.368 82.3413 178.902 83.5787 178.902 85.072C178.902 86.5653 178.368 87.824 177.302 88.848C176.278 89.8293 174.976 90.32 173.398 90.32ZM177.814 94.544V130H168.854V94.544H177.814Z" fill="#2F2F2E"/>
<path d="M164.005 94.544L153.637 130H143.974L137.51 105.232L131.046 130H121.317L110.885 94.544H119.974L126.245 121.552L133.029 94.544H142.501L149.158 121.488L155.43 94.544H164.005Z" fill="#2F2F2E"/>
<path d="M93.0636 111.504C93.0636 112.784 92.9782 113.936 92.8076 114.96H66.8876C67.1009 117.52 67.9969 119.525 69.5756 120.976C71.1542 122.427 73.0956 123.152 75.3996 123.152C78.7276 123.152 81.0956 121.723 82.5036 118.864H92.1676C91.1436 122.277 89.1809 125.093 86.2796 127.312C83.3782 129.488 79.8156 130.576 75.5916 130.576C72.1782 130.576 69.1062 129.829 66.3756 128.336C63.6876 126.8 61.5756 124.645 60.0396 121.872C58.5462 119.099 57.7996 115.899 57.7996 112.272C57.7996 108.603 58.5462 105.381 60.0396 102.608C61.5329 99.8347 63.6236 97.7013 66.3116 96.208C68.9996 94.7147 72.0929 93.968 75.5916 93.968C78.9622 93.968 81.9702 94.6933 84.6156 96.144C87.3036 97.5947 89.3729 99.664 90.8236 102.352C92.3169 104.997 93.0636 108.048 93.0636 111.504ZM83.7836 108.944C83.7409 106.64 82.9089 104.805 81.2876 103.44C79.6662 102.032 77.6822 101.328 75.3356 101.328C73.1169 101.328 71.2396 102.011 69.7036 103.376C68.2102 104.699 67.2929 106.555 66.9516 108.944H83.7836Z" fill="#2F2F2E"/>
<path d="M54.297 101.904H48.089V130H39.001V101.904H34.969V94.544H39.001V92.752C39.001 88.4 40.2383 85.2 42.713 83.152C45.1877 81.104 48.921 80.144 53.913 80.272V87.824C51.737 87.7813 50.2223 88.144 49.369 88.912C48.5157 89.68 48.089 91.0667 48.089 93.072V94.544H54.297V101.904Z" fill="#2F2F2E"/>
<path d="M24.7726 90.32C23.1939 90.32 21.8712 89.8293 20.8046 88.848C19.7806 87.824 19.2686 86.5653 19.2686 85.072C19.2686 83.5787 19.7806 82.3413 20.8046 81.36C21.8712 80.336 23.1939 79.824 24.7726 79.824C26.3512 79.824 27.6526 80.336 28.6766 81.36C29.7432 82.3413 30.2766 83.5787 30.2766 85.072C30.2766 86.5653 29.7432 87.824 28.6766 88.848C27.6526 89.8293 26.3512 90.32 24.7726 90.32ZM29.1886 94.544V130H20.2286V94.544H29.1886Z" fill="#2F2F2E"/>
<path d="M11.376 82.64V130H2.41602V82.64H11.376Z" fill="#2F2F2E"/>
<path d="M439.524 12.544L417.572 64.768H408.036L415.716 47.104L401.508 12.544H411.556L420.708 37.312L429.988 12.544H439.524Z" fill="#2F2F2E"/>
<path d="M383.259 12.032C385.947 12.032 388.336 12.6293 390.427 13.824C392.518 14.976 394.139 16.704 395.291 19.008C396.486 21.2693 397.083 24 397.083 27.2V48H388.123V28.416C388.123 25.6 387.419 23.4453 386.011 21.952C384.603 20.416 382.683 19.648 380.251 19.648C377.776 19.648 375.814 20.416 374.363 21.952C372.955 23.4453 372.251 25.6 372.251 28.416V48H363.291V0.640015H372.251V16.96C373.403 15.424 374.939 14.2293 376.859 13.376C378.779 12.48 380.912 12.032 383.259 12.032Z" fill="#2F2F2E"/>
<path d="M348.911 19.904V37.056C348.911 38.2507 349.188 39.1253 349.743 39.68C350.34 40.192 351.321 40.448 352.687 40.448H356.847V48H351.215C343.663 48 339.887 44.3307 339.887 36.992V19.904H335.663V12.544H339.887V3.776H348.911V12.544H356.847V19.904H348.911Z" fill="#2F2F2E"/>
<path d="M329.626 0.640015V48H320.666V0.640015H329.626Z" fill="#2F2F2E"/>
<path d="M274.987 30.144C274.987 26.56 275.691 23.3813 277.099 20.608C278.55 17.8347 280.491 15.7013 282.923 14.208C285.398 12.7147 288.15 11.968 291.179 11.968C293.824 11.968 296.128 12.5013 298.091 13.568C300.096 14.6347 301.696 15.9787 302.891 17.6V12.544H311.915V48H302.891V42.816C301.739 44.48 300.139 45.8667 298.091 46.976C296.086 48.0427 293.76 48.576 291.115 48.576C288.128 48.576 285.398 47.808 282.923 46.272C280.491 44.736 278.55 42.5813 277.099 39.808C275.691 36.992 274.987 33.7707 274.987 30.144ZM302.891 30.272C302.891 28.096 302.464 26.24 301.611 24.704C300.758 23.1253 299.606 21.9307 298.155 21.12C296.704 20.2667 295.147 19.84 293.483 19.84C291.819 19.84 290.283 20.2453 288.875 21.056C287.467 21.8667 286.315 23.0613 285.419 24.64C284.566 26.176 284.139 28.0107 284.139 30.144C284.139 32.2773 284.566 34.1547 285.419 35.776C286.315 37.3547 287.467 38.5707 288.875 39.424C290.326 40.2773 291.862 40.704 293.483 40.704C295.147 40.704 296.704 40.2987 298.155 39.488C299.606 38.6347 300.758 37.44 301.611 35.904C302.464 34.3253 302.891 32.448 302.891 30.272Z" fill="#2F2F2E"/>
<path d="M270.751 29.504C270.751 30.784 270.666 31.936 270.495 32.96H244.575C244.788 35.52 245.684 37.5253 247.263 38.976C248.842 40.4267 250.783 41.152 253.087 41.152C256.415 41.152 258.783 39.7227 260.191 36.864H269.855C268.831 40.2773 266.868 43.0933 263.967 45.312C261.066 47.488 257.503 48.576 253.279 48.576C249.866 48.576 246.794 47.8293 244.063 46.336C241.375 44.8 239.263 42.6453 237.727 39.872C236.234 37.0987 235.487 33.8987 235.487 30.272C235.487 26.6027 236.234 23.3813 237.727 20.608C239.22 17.8347 241.311 15.7013 243.999 14.208C246.687 12.7147 249.78 11.968 253.279 11.968C256.65 11.968 259.658 12.6933 262.303 14.144C264.991 15.5947 267.06 17.664 268.511 20.352C270.004 22.9973 270.751 26.048 270.751 29.504ZM261.471 26.944C261.428 24.64 260.596 22.8053 258.975 21.44C257.354 20.032 255.37 19.328 253.023 19.328C250.804 19.328 248.927 20.0107 247.391 21.376C245.898 22.6987 244.98 24.5547 244.639 26.944H261.471Z" fill="#2F2F2E"/>
<path d="M215.447 12.032C218.135 12.032 220.524 12.6293 222.615 13.824C224.705 14.976 226.327 16.704 227.479 19.008C228.673 21.2693 229.271 24 229.271 27.2V48H220.311V28.416C220.311 25.6 219.607 23.4453 218.199 21.952C216.791 20.416 214.871 19.648 212.439 19.648C209.964 19.648 208.001 20.416 206.551 21.952C205.143 23.4453 204.439 25.6 204.439 28.416V48H195.479V0.640015H204.439V16.96C205.591 15.424 207.127 14.2293 209.047 13.376C210.967 12.48 213.1 12.032 215.447 12.032Z" fill="#2F2F2E"/>
<path d="M173.689 29.504C173.689 30.784 173.603 31.936 173.433 32.96H147.513C147.726 35.52 148.622 37.5253 150.201 38.976C151.779 40.4267 153.721 41.152 156.025 41.152C159.353 41.152 161.721 39.7227 163.129 36.864H172.793C171.769 40.2773 169.806 43.0933 166.905 45.312C164.003 47.488 160.441 48.576 156.217 48.576C152.803 48.576 149.731 47.8293 147.001 46.336C144.313 44.8 142.201 42.6453 140.665 39.872C139.171 37.0987 138.425 33.8987 138.425 30.272C138.425 26.6027 139.171 23.3813 140.665 20.608C142.158 17.8347 144.249 15.7013 146.937 14.208C149.625 12.7147 152.718 11.968 156.217 11.968C159.587 11.968 162.595 12.6933 165.241 14.144C167.929 15.5947 169.998 17.664 171.449 20.352C172.942 22.9973 173.689 26.048 173.689 29.504ZM164.409 26.944C164.366 24.64 163.534 22.8053 161.913 21.44C160.291 20.032 158.307 19.328 155.961 19.328C153.742 19.328 151.865 20.0107 150.329 21.376C148.835 22.6987 147.918 24.5547 147.577 26.944H164.409Z" fill="#2F2F2E"/>
<path d="M124.346 48L112.314 32.896V48H103.354V0.640015H112.314V27.584L124.218 12.544H135.866L120.25 30.336L135.994 48H124.346Z" fill="#2F2F2E"/>
<path d="M57.6746 30.144C57.6746 26.56 58.3786 23.3813 59.7866 20.608C61.2372 17.8347 63.1786 15.7013 65.6106 14.208C68.0852 12.7147 70.8372 11.968 73.8666 11.968C76.5119 11.968 78.8159 12.5013 80.7786 13.568C82.7839 14.6347 84.3839 15.9787 85.5786 17.6V12.544H94.6026V48H85.5786V42.816C84.4266 44.48 82.8266 45.8667 80.7786 46.976C78.7732 48.0427 76.4479 48.576 73.8026 48.576C70.8159 48.576 68.0852 47.808 65.6106 46.272C63.1786 44.736 61.2372 42.5813 59.7866 39.808C58.3786 36.992 57.6746 33.7707 57.6746 30.144ZM85.5786 30.272C85.5786 28.096 85.1519 26.24 84.2986 24.704C83.4452 23.1253 82.2932 21.9307 80.8426 21.12C79.3919 20.2667 77.8346 19.84 76.1706 19.84C74.5066 19.84 72.9706 20.2453 71.5626 21.056C70.1546 21.8667 69.0026 23.0613 68.1066 24.64C67.2532 26.176 66.8266 28.0107 66.8266 30.144C66.8266 32.2773 67.2532 34.1547 68.1066 35.776C69.0026 37.3547 70.1546 38.5707 71.5626 39.424C73.0132 40.2773 74.5492 40.704 76.1706 40.704C77.8346 40.704 79.3919 40.2987 80.8426 39.488C82.2932 38.6347 83.4452 37.44 84.2986 35.904C85.1519 34.3253 85.5786 32.448 85.5786 30.272Z" fill="#2F2F2E"/>
<path d="M51.12 3.328V48H42.16V18.944L30.192 48H23.408L11.376 18.944V48H2.41602V3.328H12.592L26.8 36.544L41.008 3.328H51.12Z" fill="#2F2F2E"/>
<path d="M257.5 160C257.5 160 403 129 425.5 160" stroke="#2F2F2E" stroke-width="3"/>
</svg>
